<?xml version="1.0" encoding="utf-8"?>
<!-- Generator: Adobe Illustrator 19.0.0, SVG Export Plug-In . SVG Version: 6.00 Build 0)  -->
<svg version="1.1" id="Capa_1" xmlns="http://www.w3.org/2000/svg" xmlns:xlink="http://www.w3.org/1999/xlink" x="0px" y="0px"
	 viewBox="0 0 828.7 170" style="enable-background:new 0 0 828.7 170;" xml:space="preserve">
<style type="text/css">
	.st0{fill:#FFFFFF;}
</style>
<g id="XMLID_54_">
	<path id="XMLID_278_" class="st0" d="M238.6,58.4l-26.4,14.9L202,79.1l-41.8-23.6l83.2-45.2l3-1.6c0.2,0,0.4,0,0.7,0
		c0.7,0,1.4,0.1,2.1,0.4c2,0.8,3.3,2.8,3.3,5v36.5l-11.1,6.2c-0.3,0.1-0.6,0.3-0.9,0.5"/>
	<path id="XMLID_275_" class="st0" d="M238.6,58.4l-26.4,14.9L202,79.1l-41.8-23.6l83.2-45.2l3-1.6c0.2,0,0.4,0,0.7,0
		c0.7,0,1.4,0.1,2.1,0.4c2,0.8,3.3,2.8,3.3,5v36.5l-11.1,6.2c-0.3,0.1-0.6,0.3-0.9,0.5"/>
	<path id="XMLID_274_" class="st0" d="M238.6,58.4l-26.4,14.9L202,79.1l-41.8-23.6l83.2-45.2l3-1.6c0.2,0,0.4,0,0.7,0
		c0.7,0,1.4,0.1,2.1,0.4c2,0.8,3.3,2.8,3.3,5v36.5l-11.1,6.2c-0.3,0.1-0.6,0.3-0.9,0.5"/>
	<path id="XMLID_273_" class="st0" d="M252.5,14v36.5l-11.1,6.2c-0.3,0.1-0.6,0.3-0.9,0.5l-1.8,1.1l-26.4,14.9L202,79.1l-41.8-23.6
		l83.2-45.2l3-1.6c0.2,0,0.4,0,0.7,0c0.7,0,1.4,0.1,2.1,0.4C251.2,9.9,252.5,11.8,252.5,14z"/>
	<path id="XMLID_272_" class="st0" d="M289.6,138.1c1.8,0.8,3.7,1.2,5.6,1.2h0.2c-8.1,13.5-22.6,21.9-38.5,21.9h-0.3
		c-5,0-9.9-0.9-14.6-2.5l-13-7.3l-0.1-0.2l-0.5-0.2l-0.6-0.6l-0.6,0l-73.5-41.5L14.2,29.9c-0.3-0.2-0.6-0.4-0.9-0.6l-1.4-0.7
		c-1.7-0.7-3.4-1-5.2-1.1c6.3-10.1,16.3-17.3,27.9-20c3.4-0.8,6.8-1.2,10.2-1.2h0.2c2.2,0,4.4,0.2,6.6,0.5c4.7,0.7,9.3,2.2,13.5,4.4
		l3.6,2l131.1,74.1l39.2,22.2l0,0.1l1,0.5l47.8,27l0.6,0.4"/>
	<path id="XMLID_271_" class="st0" d="M289.6,138.1c1.8,0.8,3.7,1.2,5.6,1.2h0.2c-8.1,13.5-22.6,21.9-38.5,21.9h-0.3
		c-5,0-9.9-0.9-14.6-2.5l-13-7.3l-0.1-0.2l-0.5-0.2l-0.6-0.6l-0.6,0l-73.5-41.5L14.2,29.9c-0.3-0.2-0.6-0.4-0.9-0.6l-1.4-0.7
		c-1.7-0.7-3.4-1-5.2-1.1c6.3-10.1,16.3-17.3,27.9-20c3.4-0.8,6.8-1.2,10.2-1.2h0.2c2.2,0,4.4,0.2,6.6,0.5c4.7,0.7,9.3,2.2,13.5,4.4
		l3.6,2l131.1,74.1l39.2,22.2l0,0.1l1,0.5l47.8,27l0.6,0.4"/>
	<path id="XMLID_245_" class="st0" d="M289.6,138.1c1.8,0.8,3.7,1.2,5.6,1.2h0.2c-8.1,13.5-22.6,21.9-38.5,21.9h-0.3
		c-5,0-9.9-0.9-14.6-2.5l-13-7.3l-0.1-0.2l-0.5-0.2l-0.6-0.6l-0.6,0l-73.5-41.5L14.2,29.9c-0.3-0.2-0.6-0.4-0.9-0.6l-1.4-0.7
		c-1.7-0.7-3.4-1-5.2-1.1c6.3-10.1,16.3-17.3,27.9-20c3.4-0.8,6.8-1.2,10.2-1.2h0.2c2.2,0,4.4,0.2,6.6,0.5c4.7,0.7,9.3,2.2,13.5,4.4
		l3.6,2l131.1,74.1l39.2,22.2l0,0.1l1,0.5l47.8,27l0.6,0.4"/>
	<path id="XMLID_244_" class="st0" d="M295.4,139.3c-8.1,13.5-22.6,21.9-38.5,21.9h-0.3c-5,0-9.9-0.9-14.6-2.5l-13-7.3l-0.1-0.2
		l-0.5-0.2l-0.6-0.6l-0.6,0l-73.5-41.5L14.2,29.9c-0.3-0.2-0.6-0.4-0.9-0.6l-1.4-0.7c-1.7-0.7-3.4-1-5.2-1.1
		c6.3-10.1,16.3-17.3,27.9-20c3.4-0.8,6.8-1.2,10.2-1.2h0.2c2.2,0,4.4,0.2,6.6,0.5c4.7,0.7,9.3,2.2,13.5,4.4l3.6,2l131.1,74.1
		l39.2,22.2l0,0.1l1,0.5l47.8,27l0.6,0.4l1,0.5c1.8,0.8,3.7,1.2,5.6,1.2H295.4z"/>
	<path id="XMLID_243_" class="st0" d="M291,129.4l-30.3-17.1V14c0-2.3-0.6-4.5-1.6-6.4c15.4,0.9,29.3,9.5,36.8,23.1
		c0.5,0.9,0.9,1.7,1.3,2.5c3,6.2,4.5,12.7,4.5,19.2v63.9c0,3.5-0.4,6.9-1.2,10.1l-0.1,0.3c-0.1,0.2-0.1,0.4-0.1,0.5l-0.2,0.5
		c-0.9,2-2.8,3.2-4.9,3.2c-0.6,0-1.2-0.1-1.7-0.3"/>
	<path id="XMLID_242_" class="st0" d="M291,129.4l-30.3-17.1V14c0-2.3-0.6-4.5-1.6-6.4c15.4,0.9,29.3,9.5,36.8,23.1
		c0.5,0.9,0.9,1.7,1.3,2.5c3,6.2,4.5,12.7,4.5,19.2v63.9c0,3.5-0.4,6.9-1.2,10.1l-0.1,0.3c-0.1,0.2-0.1,0.4-0.1,0.5l-0.2,0.5
		c-0.9,2-2.8,3.2-4.9,3.2c-0.6,0-1.2-0.1-1.7-0.3"/>
	<path id="XMLID_241_" class="st0" d="M291,129.4l-30.3-17.1V14c0-2.3-0.6-4.5-1.6-6.4c15.4,0.9,29.3,9.5,36.8,23.1
		c0.5,0.9,0.9,1.7,1.3,2.5c3,6.2,4.5,12.7,4.5,19.2v63.9c0,3.5-0.4,6.9-1.2,10.1l-0.1,0.3c-0.1,0.2-0.1,0.4-0.1,0.5l-0.2,0.5
		c-0.9,2-2.8,3.2-4.9,3.2c-0.6,0-1.2-0.1-1.7-0.3"/>
	<path id="XMLID_240_" class="st0" d="M301.7,52.4v63.9c0,3.5-0.4,6.9-1.2,10.1l-0.1,0.3c-0.1,0.2-0.1,0.4-0.1,0.5l-0.2,0.5
		c-0.9,2-2.8,3.2-4.9,3.2c-0.6,0-1.2-0.1-1.7-0.3l-0.1-0.1l-0.5-0.2l-0.3-0.2l-0.8-0.5l-0.7-0.3l-30.3-17.1V14
		c0-2.3-0.6-4.5-1.6-6.4c15.4,0.9,29.3,9.5,36.8,23.1c0.5,0.9,0.9,1.7,1.3,2.5C300.2,39.3,301.7,45.8,301.7,52.4z"/>
	<path id="XMLID_239_" class="st0" d="M42.6,161.2c-15.5-0.8-29.5-9.5-37.1-23.2C2.1,131.8,0.2,125,0,117.8V51.2
		c0-3.8,0.5-7.6,1.4-11.2c0-0.1,0.1-0.3,0.1-0.4c0.7-2.3,2.8-3.8,5.1-3.8c0.7,0,1.4,0.1,2,0.4l2.4,1.4l30,16.9v99.7
		c0,0.1,0,0.3,0,0.5c0,0.3,0,0.5,0,0.8C41.1,157.5,41.6,159.5,42.6,161.2z"/>
	<path id="XMLID_238_" class="st0" d="M42.6,161.2c-15.5-0.8-29.5-9.5-37.1-23.2C2.1,131.8,0.2,125,0,117.8V51.2
		c0-3.8,0.5-7.6,1.4-11.2c0-0.1,0.1-0.3,0.1-0.4c0.7-2.3,2.8-3.8,5.1-3.8c0.7,0,1.4,0.1,2,0.4l2.4,1.4l30,16.9v99.7
		c0,0.1,0,0.3,0,0.5c0,0.3,0,0.5,0,0.8C41.1,157.5,41.6,159.5,42.6,161.2z"/>
	<path id="XMLID_237_" class="st0" d="M42.6,161.2c-15.5-0.8-29.5-9.5-37.1-23.2C2.1,131.8,0.2,125,0,117.8V51.2
		c0-3.8,0.5-7.6,1.4-11.2c0-0.1,0.1-0.3,0.1-0.4c0.7-2.3,2.8-3.8,5.1-3.8c0.7,0,1.4,0.1,2,0.4l2.4,1.4l30,16.9v99.7
		c0,0.1,0,0.3,0,0.5c0,0.3,0,0.5,0,0.8C41.1,157.5,41.6,159.5,42.6,161.2z"/>
	<path id="XMLID_236_" class="st0" d="M42.6,161.2c-15.5-0.8-29.5-9.5-37.1-23.2C2.1,131.8,0.2,125,0,117.8V51.2
		c0-3.8,0.5-7.6,1.4-11.2c0-0.1,0.1-0.3,0.1-0.4c0.7-2.3,2.8-3.8,5.1-3.8c0.7,0,1.4,0.1,2,0.4l2.4,1.4l30,16.9v99.7
		c0,0.1,0,0.3,0,0.5c0,0.3,0,0.5,0,0.8C41.1,157.5,41.6,159.5,42.6,161.2z"/>
	<path id="XMLID_235_" class="st0" d="M143.2,112.3l-75.1,42.4l-0.5,0.3l-1.6,0.9c-2.9,1.5-5.8,2.7-8.9,3.6h-0.7l-0.5,0.3
		c-0.2,0.1-0.5,0.1-0.8,0.2c-0.2,0-0.5,0.1-0.7,0.1c-2.9,0-5.2-2.2-5.4-5.1v-37l52.1-29.4L143.2,112.3z"/>
	<path id="XMLID_234_" class="st0" d="M143.2,112.3l-75.1,42.4l-0.5,0.3l-1.6,0.9c-2.9,1.5-5.8,2.7-8.9,3.6h-0.7l-0.5,0.3
		c-0.2,0.1-0.5,0.1-0.8,0.2c-0.2,0-0.5,0.1-0.7,0.1c-2.9,0-5.2-2.2-5.4-5.1v-37l52.1-29.4L143.2,112.3z"/>
	<path id="XMLID_205_" class="st0" d="M143.2,112.3l-75.1,42.4l-0.5,0.3l-1.6,0.9c-2.9,1.5-5.8,2.7-8.9,3.6h-0.7l-0.5,0.3
		c-0.2,0.1-0.5,0.1-0.8,0.2c-0.2,0-0.5,0.1-0.7,0.1c-2.9,0-5.2-2.2-5.4-5.1v-37l52.1-29.4L143.2,112.3z"/>
	<path id="XMLID_204_" class="st0" d="M143.2,112.3l-75.1,42.4l-0.5,0.3l-1.6,0.9c-2.9,1.5-5.8,2.7-8.9,3.6h-0.7l-0.5,0.3
		c-0.2,0.1-0.5,0.1-0.8,0.2c-0.2,0-0.5,0.1-0.7,0.1c-2.9,0-5.2-2.2-5.4-5.1v-37l52.1-29.4L143.2,112.3z"/>
</g>
<g id="XMLID_53_">
	<path id="XMLID_521_" class="st0" d="M433,44c0.6,1.2,1,2.2,1.1,3.2c0.1,0.9,0.2,2.3,0.2,4.1v65.3c0,5.4-1.5,8.6-4.5,9.5
		c-1.5,0.5-3.4,0.7-5.6,0.7c-2.3,0-4.1-0.2-5.4-0.6c-1.3-0.4-2.4-0.9-3.1-1.4c-0.7-0.5-1.3-1.3-1.6-2.4c-0.4-1.3-0.6-3.4-0.6-6.1
		V76.9c-2,2.4-4.8,6.3-8.6,11.6c-3.8,5.3-6.2,8.6-7.2,9.9c-1,1.3-1.7,2.3-2.1,2.8c-0.4,0.5-1.4,1.2-2.9,2.1
		c-1.5,0.9-3.2,1.4-4.9,1.4s-3.4-0.4-4.8-1.2c-1.5-0.8-2.5-1.6-3.1-2.4l-0.9-1.3c-1.6-2-4.7-6.1-9.3-12.5c-4.6-6.4-7.1-9.8-7.5-10.3
		v39.6c0,1.8-0.1,3.2-0.2,4.1c-0.1,0.9-0.5,1.9-1.1,3c-1.2,2.1-4.2,3.2-9.2,3.2c-4.8,0-7.8-1.1-8.9-3.2c-0.6-1.1-1-2.1-1.1-3.1
		c-0.1-0.9-0.2-2.4-0.2-4.2V51c0-1.8,0.1-3.2,0.2-4.1c0.1-0.9,0.5-1.9,1.1-3.1c1.2-2,4.2-3.1,9.2-3.1c2.1,0,3.9,0.3,5.5,0.8
		c1.5,0.5,2.5,1,3,1.6l0.7,0.7l26.7,35.1C401.1,61.3,410,49.6,414.4,44c1.3-2.1,4.5-3.2,9.5-3.2C428.9,40.8,431.9,41.9,433,44z"/>
	<path id="XMLID_518_" class="st0" d="M484.2,39.6c11.6,0,21.7,4.2,30.2,12.6c8.5,8.4,12.8,18.8,12.8,31.2c0,12.4-4.1,23-12.2,31.8
		c-8.2,8.7-18.2,13.1-30.1,13.1c-11.9,0-22.1-4.3-30.4-12.9c-8.4-8.6-12.5-18.9-12.5-30.8c0-6.5,1.2-12.6,3.5-18.3
		c2.4-5.7,5.5-10.4,9.4-14.3c3.9-3.8,8.4-6.9,13.5-9.1C473.5,40.7,478.8,39.6,484.2,39.6z M462.8,84c0,7,2.3,12.6,6.8,17
		c4.5,4.4,9.5,6.5,15.1,6.5c5.6,0,10.6-2.1,15.1-6.4c4.5-4.2,6.7-9.9,6.7-17.1c0-7.1-2.3-12.9-6.8-17.2c-4.5-4.3-9.5-6.5-15.1-6.5
		c-5.6,0-10.6,2.2-15.1,6.5C465,71.3,462.8,77,462.8,84z"/>
	<path id="XMLID_515_" class="st0" d="M596.3,80.7c4.6,5.5,6.9,11.6,6.9,18.5c-0.2,7.8-2.8,14.4-8.1,19.7c-5.2,5.3-11.5,7.9-19,7.9
		h-30.9c-5.5,0-8.7-1.5-9.6-4.5c-0.5-1.3-0.7-3.4-0.7-6.1V50.9c0-1.9,0.1-3.3,0.2-4.1c0.1-0.9,0.5-1.9,1.1-3.1
		c1.1-2.1,4.2-3.2,9.2-3.2H575c7.2,0,13.3,2.5,18.1,7.5c5.1,5.1,7.6,11.2,7.6,18.4C600.8,71.6,599.3,76.4,596.3,80.7z M582.4,98
		c0-1.9-0.2-3.4-0.6-4.5c-0.4-1.1-1.2-1.9-2.2-2.4c-1.6-0.6-3.8-0.9-6.6-0.9c-2.8,0-4.9-0.5-6.4-1.6c-1.4-1.1-2.1-3.4-2.1-6.8
		c0-3.4,0.7-5.7,2.2-6.8c1.5-1.1,3.9-1.6,7.2-1.6c3.1,0,5-0.8,5.6-2.5c0.2-0.9,0.4-2.3,0.4-4.2c0-2-0.6-3.3-1.9-4.1
		c-1.3-0.8-3.2-1.2-5.8-1.2h-16.5V106H575C579.9,106,582.4,103.3,582.4,98z"/>
	<path id="XMLID_513_" class="st0" d="M631.7,106.1h36.2c1.8,0,3.2,0.1,4.1,0.2c0.9,0.1,1.9,0.5,3.1,1.1c2.1,1.1,3.2,4.2,3.2,9.2
		c0,5.5-1.5,8.7-4.4,9.6c-1.3,0.5-3.4,0.7-6.1,0.7h-46.6c-5.5,0-8.7-1.5-9.6-4.5c-0.5-1.3-0.7-3.3-0.7-6V51c0-4,0.7-6.7,2.2-8.2
		c1.5-1.4,4.3-2.2,8.5-2.2h46.3c1.8,0,3.2,0.1,4.1,0.2c0.9,0.1,1.9,0.5,3.1,1.1c2.1,1.1,3.2,4.2,3.2,9.2c0,5.5-1.5,8.7-4.4,9.6
		c-1.3,0.5-3.4,0.7-6.1,0.7h-36.1v11.9H655c1.8,0,3.2,0.1,4.1,0.2c0.9,0.1,1.9,0.5,3.1,1.1c2.1,1.1,3.2,4.2,3.2,9.2
		c0,5.5-1.5,8.7-4.5,9.6c-1.3,0.5-3.4,0.7-6.1,0.7h-23.1V106.1z"/>
	<path id="XMLID_511_" class="st0" d="M742.3,43.9c0.8-1.3,1.9-2.1,3.4-2.6c1.5-0.5,3.4-0.7,5.6-0.7c2.2,0,4,0.2,5.4,0.6
		c1.3,0.4,2.4,0.9,3.1,1.4c0.7,0.6,1.2,1.4,1.5,2.5c0.5,1.3,0.7,3.4,0.7,6.1v35.5c0,10.4-3.2,19.8-9.6,28.2c-3.1,4-7.2,7.2-12.1,9.7
		c-4.9,2.5-10.4,3.7-16.4,3.7c-6,0-11.5-1.3-16.4-3.8c-4.9-2.5-8.9-5.8-11.9-9.9c-6.4-8.3-9.5-17.7-9.5-28.2V51
		c0-1.9,0.1-3.3,0.2-4.2c0.1-0.9,0.5-1.9,1.1-3.1c0.6-1.2,1.7-2,3.2-2.5c1.5-0.5,3.5-0.7,6-0.7c2.5,0,4.5,0.2,6,0.7
		c1.5,0.5,2.5,1.3,3.1,2.5c0.9,1.8,1.4,4.3,1.4,7.4v35.3c0,4.8,1.2,9.3,3.5,13.6c1.2,2.2,2.9,4,5.3,5.3c2.4,1.3,5.1,2,8.4,2
		c5.7,0,10-2.1,12.8-6.4c2.8-4.2,4.2-9.1,4.2-14.7v-36C741.1,47.3,741.5,45.1,742.3,43.9z"/>
	<path id="XMLID_509_" class="st0" d="M769.1,114.8c-2-2.5-3.1-4.8-3.1-6.8s1.7-4.6,5.1-7.9c2-1.9,4-2.8,6.2-2.8
		c2.2,0,5.3,2,9.2,5.9c1.1,1.3,2.7,2.6,4.7,3.8c2,1.2,3.9,1.8,5.6,1.8c7.3,0,10.9-3,10.9-8.9c0-1.8-1-3.3-3-4.5
		c-2-1.2-4.5-2.1-7.5-2.6c-3-0.5-6.2-1.4-9.6-2.6c-3.5-1.2-6.7-2.6-9.6-4.3c-3-1.6-5.5-4.3-7.5-7.8c-2-3.6-3-7.9-3-12.9
		c0-6.9,2.6-12.9,7.7-18.1c5.1-5.1,12.1-7.7,21-7.7c4.7,0,9,0.6,12.9,1.8c3.9,1.2,6.6,2.5,8.1,3.7l2.9,2.2c2.4,2.3,3.6,4.2,3.6,5.8
		c0,1.6-0.9,3.7-2.8,6.5c-2.7,3.9-5.4,5.9-8.2,5.9c-1.6,0-3.7-0.8-6.1-2.4c-0.2-0.2-0.7-0.5-1.4-1.2c-0.7-0.6-1.3-1.1-1.8-1.5
		c-1.6-1-3.7-1.5-6.3-1.5c-2.5,0-4.7,0.6-6.4,1.8c-1.7,1.2-2.5,2.9-2.5,5.1c0,2.2,1,3.9,3,5.2c2,1.3,4.5,2.2,7.5,2.7
		c3,0.5,6.2,1.2,9.8,2.2c3.5,1,6.8,2.2,9.8,3.6c3,1.4,5.5,3.9,7.5,7.4c2,3.5,3,7.8,3,12.9c0,5.1-1,9.6-3.1,13.5c-2,3.9-4.7,6.9-8,9
		c-6.4,4.2-13.1,6.2-20.4,6.2c-3.7,0-7.2-0.5-10.5-1.4c-3.3-0.9-6-2-8-3.4c-4.2-2.5-7.1-4.9-8.7-7.3L769.1,114.8z"/>
</g>
</svg>
