<?xml version="1.0" encoding="utf-8"?>
<!-- Generator: Adobe Illustrator 19.0.0, SVG Export Plug-In . SVG Version: 6.00 Build 0)  -->
<svg version="1.1" id="Capa_1" xmlns="http://www.w3.org/2000/svg" xmlns:xlink="http://www.w3.org/1999/xlink" x="0px" y="0px"
	 viewBox="0 0 154 316" style="enable-background:new 0 0 154 316;" xml:space="preserve">
<style type="text/css">
	.st0{fill:#FCFCFC;}
</style>
<g id="XMLID_3_">
	<path id="XMLID_5_" class="st0" d="M28,308.9c-3.5,0-7.1-1.1-10.1-3.4c-7.6-5.6-9.2-16.3-3.6-23.9L105.2,159L14.4,36.4
		c-5.6-7.6-4-18.3,3.6-23.9c7.6-5.6,18.3-4,23.9,3.6l98.4,132.8c4.5,6,4.5,14.3,0,20.3L41.8,302C38.4,306.5,33.3,308.9,28,308.9z"/>
</g>
<g id="XMLID_1_">
	<path id="XMLID_2_" class="st0" d="M1099.5,429.9c4.1,0,8.3-1.3,11.9-3.9c8.9-6.6,10.7-19.1,4.2-28L1009,254.2l106.5-143.8
		c6.6-8.9,4.7-21.4-4.2-28c-8.9-6.6-21.4-4.7-28,4.2L968.1,242.3c-5.2,7.1-5.2,16.7,0,23.8l115.4,155.7
		C1087.4,427.1,1093.4,429.9,1099.5,429.9z"/>
</g>
</svg>
