<?xml version="1.0" encoding="utf-8"?>
<!-- Generator: Adobe Illustrator 19.0.0, SVG Export Plug-In . SVG Version: 6.00 Build 0)  -->
<svg version="1.1" id="Capa_1" xmlns="http://www.w3.org/2000/svg" xmlns:xlink="http://www.w3.org/1999/xlink" x="0px" y="0px"
	 viewBox="0 0 139.6 560" style="enable-background:new 0 0 139.6 560;" xml:space="preserve">
<style type="text/css">
	.st0{opacity:0.31;}
	.st1{fill:#FCFCFC;}
	.st2{fill:#FFFFFF;}
</style>
<g id="XMLID_588_" class="st0">
	<g id="XMLID_621_">
		<path id="XMLID_84_" class="st1" d="M121.2,545.7c8,0,12.7,2.1,14,6.3c0.7,2.2,1.1,5.1,1.1,8.6c0,3.5-0.3,6.2-0.9,8.2
			c-0.6,2-1.3,3.5-2,4.5c-0.7,0.9-1.8,1.7-3.2,2.2c-2,0.6-5.1,0.9-9.3,0.9H59h-2.8l2.2,1.8c3.8,3.1,9.9,7.6,18.2,13.5
			c8.2,5.8,13.4,9.6,15.6,11.2c2.1,1.6,3.5,2.7,4.3,3.3c0.5,0.4,1.4,1.4,3.1,4.2c1.3,2.2,2,4.7,2,7.2c0,2.6-0.6,5-1.8,7.1
			c-1.2,2.2-2.4,3.7-3.5,4.6l-2.1,1.5c-3,2.4-9.6,7.3-19.6,14.5c-10.3,7.5-15.4,11.2-16.2,11.8l-2.1,1.8H59h62.2
			c2.8,0,4.9,0.1,6.2,0.3c1.3,0.2,2.7,0.7,4.3,1.6c3,1.6,4.5,6.2,4.5,13.5c0,7.1-1.5,11.5-4.5,13.1c-1.6,0.9-3.1,1.5-4.4,1.6
			c-1.4,0.2-3.6,0.3-6.5,0.3H18.4c-2.8,0-4.9-0.1-6.2-0.3c-1.3-0.2-2.8-0.7-4.5-1.6c-2.9-1.6-4.3-6.2-4.3-13.5c0-3.2,0.4-6,1.1-8.3
			c0.9-2.8,1.7-3.8,2.2-4.3l0,0l0,0l1.1-1.1l54.9-41.8l1-0.8l-1.1-0.8C35.3,596.2,16.8,582.1,8,575.1l0,0l0,0c-3-1.9-4.5-6.6-4.5-14
			c0-7.4,1.5-11.9,4.5-13.4c1.7-0.9,3.3-1.5,4.6-1.6c1.4-0.2,3.6-0.3,6.3-0.3H121.2 M121.2,544.7H18.8c-2.8,0-5,0.1-6.5,0.3
			c-1.5,0.2-3.1,0.8-5,1.8c-3.3,1.7-5,6.5-5,14.3c0,7.8,1.7,12.8,5,14.8c8.9,7,27.1,21,54.8,41.9l-55,41.9l-1.1,1.1
			c-0.9,0.7-1.7,2.3-2.5,4.7c-0.8,2.4-1.2,5.3-1.2,8.6c0,7.7,1.6,12.5,4.8,14.4c1.8,1,3.5,1.6,4.9,1.8c1.4,0.2,3.5,0.3,6.4,0.3
			h102.4c3,0,5.2-0.1,6.6-0.3c1.5-0.2,3.1-0.8,4.8-1.8c3.3-1.8,5-6.5,5-14c0-7.7-1.7-12.5-5-14.4c-1.7-1-3.3-1.6-4.7-1.8
			c-1.4-0.2-3.5-0.3-6.4-0.3H59c0.7-0.6,6.1-4.5,16.1-11.8c10-7.3,16.6-12.1,19.6-14.6l2-1.5c1.2-1,2.5-2.6,3.8-4.9
			c1.3-2.3,1.9-4.8,1.9-7.6c0-2.8-0.7-5.3-2.1-7.7c-1.4-2.4-2.5-3.9-3.3-4.5c-0.8-0.6-2.2-1.7-4.3-3.3c-2.1-1.6-7.3-5.3-15.6-11.3
			c-8.3-5.9-14.4-10.4-18.2-13.5h61.8c4.3,0,7.5-0.3,9.6-0.9c1.6-0.6,2.8-1.5,3.7-2.6c0.9-1.1,1.6-2.7,2.2-4.8
			c0.6-2.1,0.9-4.9,0.9-8.5c0-3.6-0.4-6.5-1.1-8.9C134.6,547,129.7,544.7,121.2,544.7L121.2,544.7z"/>
	</g>
	<g id="XMLID_618_">
		<path id="XMLID_99_" class="st1" d="M69.3,400c19.1,0,35.7,6.4,49.1,18.9c13.4,12.5,20.2,28.2,20.2,46.5c0,18.3-6.7,34.1-20,47
			c-13.3,12.8-29.3,19.4-47.6,19.4c-10,0-19.5-1.8-28.3-5.5c-8.7-3.6-16.2-8.5-22.1-14.5c-5.9-6-10.6-13.1-14-20.9
			c-3.4-7.8-5.1-16-5.1-24.3c0-17.8,6.5-33.5,19.4-46.7C33.9,406.7,50.1,400,69.3,400 M70.1,501.1c11.2,0,20.4-3.7,27.4-10.9
			c7-7.2,10.5-15.4,10.5-24.4c0-9-3.4-17.1-10.2-24.3c-6.8-7.2-16-10.8-27.5-10.8c-11.4,0-20.7,3.7-27.6,10.9
			c-6.9,7.2-10.4,15.4-10.4,24.4c0,9,3.5,17.1,10.5,24.3C49.7,497.4,58.9,501.1,70.1,501.1 M69.3,399c-19.5,0-35.8,6.7-49,20.1
			C7.1,432.5,0.6,448.3,0.6,466.5c0,8.5,1.7,16.7,5.2,24.7c3.4,8,8.2,15.1,14.2,21.2c6,6.1,13.5,11.1,22.4,14.8
			c8.9,3.7,18.5,5.5,28.7,5.5c18.7,0,34.8-6.5,48.3-19.6c13.5-13.1,20.3-29,20.3-47.7c0-18.7-6.9-34.4-20.6-47.2
			C105.3,405.4,88.7,399,69.3,399L69.3,399z M70.1,500.1c-10.9,0-19.8-3.5-26.7-10.5c-6.8-7-10.2-14.9-10.2-23.6
			c0-8.7,3.4-16.6,10.1-23.7c6.8-7.1,15.7-10.6,26.9-10.6c11.2,0,20.1,3.5,26.7,10.5c6.6,7,10,14.9,10,23.6
			c0,8.7-3.4,16.6-10.2,23.7C89.9,496.5,81,500.1,70.1,500.1L70.1,500.1z"/>
	</g>
	<g id="XMLID_615_">
		<path id="XMLID_93_" class="st1" d="M93.9,280.9c12,0.2,22.1,4.4,30.2,12.3c8.1,7.9,12.2,17.7,12.2,29.1v48.5
			c0,8.1-2.1,12.8-6.3,14.2c-2,0.7-5.1,1-9.3,1H18.3c-2.9,0-5-0.1-6.3-0.3c-1.2-0.2-2.7-0.7-4.5-1.6C4.5,382.6,3,378,3,370.6v-46.5
			c0-11,3.9-20.3,11.5-27.7c7.8-7.8,17.2-11.7,28.1-11.7c7.9,0,15.2,2.3,21.7,6.8L65,292l0.6-0.5C73.9,284.5,83.5,280.9,93.9,280.9
			 M66.7,339.5c-5,0-8.3-1-9.8-3c-1.6-2.1-2.4-5.7-2.4-10.7c0-5.4-1.5-8.6-4.5-9.8l0,0l0,0c-1.5-0.4-3.7-0.6-6.9-0.6
			c-3.4,0-5.9,1.2-7.3,3.5c-1.3,2.2-2,5.4-2,9.6v25.8v1h1h69.9h1v-1v-30.2c0-8.3-4.7-12.6-13.5-12.6c-3.1,0-5.5,0.4-7.4,1.1
			c-2,0.8-3.4,2.1-4.2,3.9l0,0l0,0c-1,2.6-1.5,6.2-1.5,10.7c0,4.2-0.8,7.3-2.4,9.3C75,338.6,71.7,339.5,66.7,339.5 M93.9,279.9
			c-10.7,0-20.3,3.6-29,10.9c-6.8-4.7-14.2-7-22.3-7c-11.2,0-20.8,4-28.8,12C6,303.4,2,312.8,2,324.1v46.5c0,7.9,1.7,12.7,5,14.4
			c1.8,1,3.4,1.6,4.8,1.8c1.4,0.2,3.5,0.3,6.5,0.3h102.4c4.3,0,7.5-0.4,9.6-1.1c4.7-1.5,7-6.5,7-15.1v-48.5
			c0-11.7-4.1-21.6-12.4-29.8C116.5,284.3,106.2,280.1,93.9,279.9L93.9,279.9z M66.7,340.5c5.3,0,8.9-1.1,10.6-3.3
			c1.7-2.2,2.6-5.5,2.6-10c0-4.4,0.5-7.9,1.5-10.3c0.7-1.6,2-2.7,3.7-3.4c1.7-0.7,4.1-1,7-1c8.4,0,12.5,3.9,12.5,11.6v30.2H34.7
			v-25.8c0-4.1,0.6-7.1,1.8-9.1c1.2-2,3.4-3,6.5-3c3.1,0,5.3,0.2,6.6,0.6c2.6,1,3.9,3.9,3.9,8.9c0,5.3,0.9,9.1,2.6,11.3
			C57.8,339.4,61.3,340.5,66.7,340.5L66.7,340.5z"/>
	</g>
	<g id="XMLID_613_">
		<path id="XMLID_80_" class="st1" d="M121.2,163.2c8.1,0,12.9,2.1,14.2,6.2c0.7,2,1.1,5.1,1.1,9.3v73c0,8.1-2.1,12.8-6.3,14.2l0,0
			l0,0c-1.8,0.7-4.9,1-9.1,1H18.4c-6,0-10-1.1-12.1-3.2c-2.1-2.1-3.1-6.4-3.1-12.6v-72.7c0-2.8,0.1-4.9,0.3-6.2
			c0.2-1.3,0.7-2.8,1.6-4.6c1.5-2.9,6.1-4.4,13.5-4.4c8.1,0,12.9,2.1,14.2,6.2c0.7,2,1,5.1,1,9.3v56.6v1h1h18.6h1v-1v-36.5
			c0-2.8,0.1-4.9,0.3-6.2c0.2-1.3,0.7-2.8,1.6-4.6c1.5-2.9,6.1-4.4,13.5-4.4c8.1,0,12.8,2.1,14.2,6.3c0.7,2,1,5.1,1,9.3v36.1v1h1
			h18.6h1v-1v-56.8c0-2.8,0.1-4.9,0.3-6.2c0.2-1.3,0.7-2.8,1.6-4.6C109.2,164.7,113.7,163.2,121.2,163.2 M121.2,162.2
			c-7.9,0-12.7,1.7-14.4,5c-1,1.8-1.6,3.5-1.8,4.9c-0.2,1.4-0.3,3.5-0.3,6.4v56.8H86.1v-36.1c0-4.3-0.4-7.5-1.1-9.6
			c-1.5-4.7-6.5-7-15.1-7c-7.9,0-12.7,1.7-14.4,5c-1,1.8-1.6,3.5-1.8,4.9c-0.2,1.4-0.3,3.5-0.3,6.4v36.5H34.9v-56.6
			c0-4.3-0.4-7.5-1.1-9.6c-1.5-4.5-6.5-6.8-15.1-6.8c-7.9,0-12.7,1.7-14.4,5c-1,1.8-1.6,3.5-1.8,4.9c-0.2,1.4-0.3,3.5-0.3,6.4v72.7
			c0,6.5,1.1,10.9,3.4,13.3c2.3,2.3,6.5,3.5,12.8,3.5H121c4.3,0,7.4-0.4,9.4-1.1c4.7-1.5,7-6.5,7-15.1v-73c0-4.3-0.4-7.5-1.1-9.6
			C134.8,164.5,129.8,162.2,121.2,162.2L121.2,162.2z"/>
	</g>
	<g id="XMLID_611_">
		<path id="XMLID_76_" class="st1" d="M74.3,32.1c15.9,0,30.6,5,43.6,14.9c6.1,4.8,11.2,11.1,14.9,18.7c3.8,7.6,5.7,16.1,5.7,25.3
			c0,9.2-1.9,17.7-5.8,25.2c-3.8,7.5-9,13.7-15.2,18.4c-12.8,9.8-27.5,14.7-43.7,14.7H18.4c-2.9,0-5.1-0.1-6.4-0.3
			c-1.3-0.2-2.8-0.7-4.5-1.6c-1.6-0.9-2.7-2.3-3.4-4.4c-0.7-2.2-1.1-5.3-1.1-9.1c0-3.8,0.4-6.9,1.1-9.1c0.7-2.1,1.8-3.4,3.4-4.2
			c2.7-1.4,6.4-2.1,11.2-2.1H74c7.6,0,15-1.9,21.9-5.7c3.6-1.9,6.5-4.9,8.7-8.7c2.2-3.8,3.3-8.4,3.3-13.6c0-9.3-3.5-16.3-10.4-20.9
			c-6.8-4.5-14.7-6.8-23.6-6.8H17.3c-4.6,0-7.8-0.6-9.6-1.7c-1.8-1.1-3-2.7-3.6-4.8C3.4,54,3,51.2,3,47.8c0-3.4,0.3-6.1,0.9-8.1
			c0.6-2,1.3-3.5,2-4.5c0.7-0.9,1.9-1.6,3.4-2.1l0,0l0,0c2-0.7,5.1-1.1,9.3-1.1H74.3 M74.3,31.1H18.6c-4.3,0-7.5,0.4-9.6,1.1
			c-1.7,0.5-3,1.3-3.9,2.4c-0.9,1.1-1.6,2.7-2.2,4.8C2.3,41.5,2,44.3,2,47.8c0,3.5,0.4,6.4,1.1,8.8c0.7,2.3,2.1,4.1,4.1,5.3
			c2,1.2,5.3,1.8,10.1,1.8h56.4c8.7,0,16.4,2.2,23.1,6.6c6.6,4.4,10,11.1,10,20.1c0,5-1,9.4-3.1,13.1c-2.1,3.7-4.9,6.5-8.3,8.3
			c-6.8,3.7-13.9,5.5-21.4,5.5H18.6c-4.9,0-8.8,0.7-11.6,2.2c-1.8,0.9-3.1,2.5-3.9,4.8c-0.7,2.3-1.1,5.5-1.1,9.4
			c0,3.9,0.4,7.1,1.1,9.4c0.7,2.3,2,4,3.9,5c1.8,1,3.5,1.6,4.9,1.8c1.4,0.2,3.6,0.3,6.5,0.3H74c16.5,0,31.2-5,44.3-14.9
			c6.4-4.8,11.6-11,15.5-18.7c3.9-7.7,5.9-16.2,5.9-25.6c0-9.4-1.9-18-5.8-25.7c-3.9-7.7-8.9-14.1-15.2-19
			C105.3,36.1,90.6,31.1,74.3,31.1L74.3,31.1z"/>
	</g>
	<g id="XMLID_589_">
		<path id="XMLID_72_" class="st1" d="M94.2-72.7c7.8,0,14.7,1.6,20.7,4.7c5.9,3.1,10.5,7.2,13.7,12.2c6.4,9.7,9.6,20.3,9.6,31.4
			c0,5.7-0.7,11.1-2.1,16.2c-1.4,5-3.1,9.2-5.1,12.3c-3.8,6.4-7.6,10.9-11.2,13.3l0,0l0,0l-2,1.7c-3.7,3-7.1,4.6-10,4.6
			c-2.8,0-6.8-2.6-11.7-7.6c-2.8-2.9-4.1-5.9-4.1-9.1c0-3.1,3-7.7,8.9-13.6c2.2-1.8,4.2-4.3,6.2-7.6c2-3.3,3-6.5,3-9.4
			c0-12-5.1-18.2-15-18.2c-3.2,0-5.9,1.7-8,5.2c-2,3.2-3.4,7.3-4.3,12.1c-0.8,4.6-2.2,9.6-4.1,15c-1.9,5.3-4.1,10.4-6.7,15
			c-2.5,4.5-6.5,8.3-11.9,11.3c-5.4,3-12,4.6-19.7,4.6c-10.5,0-19.8-4-27.6-11.8C5,1.6,1-9.2,1-22.8C1-30,1.9-36.7,3.8-42.7
			C5.7-48.6,7.6-52.7,9.5-55l3.5-4.6c3.3-3.6,6.1-5.4,8.3-5.4c2.2,0,5.5,1.4,9.6,4.3c5.8,4,8.8,8,8.8,12.1c0,2.4-1.2,5.4-3.5,9
			c-0.1,0.2-0.5,0.7-1.7,2c-1,1.1-1.8,2.1-2.5,3l0,0l0,0c-1.7,2.7-2.5,6.2-2.5,10.4c0,4.2,1,7.7,3,10.5c2.1,2.9,5,4.4,8.7,4.4
			c3.7,0,6.8-1.7,9-5.1c2.2-3.2,3.6-7.3,4.4-12.1c0.7-4.6,1.9-9.7,3.4-15.2c1.5-5.5,3.4-10.6,5.6-15.1c2.1-4.5,5.9-8.3,11.1-11.3
			C79.8-71.1,86.5-72.7,94.2-72.7 M94.2-73.7c-8,0-14.7,1.6-20.2,4.7c-5.5,3.1-9.3,7-11.5,11.7c-2.2,4.7-4.1,9.8-5.6,15.3
			c-1.5,5.5-2.7,10.6-3.4,15.3c-0.7,4.7-2.1,8.6-4.2,11.7c-2.1,3.1-4.8,4.7-8.2,4.7c-3.4,0-6-1.3-7.9-4c-1.9-2.6-2.9-6-2.9-10
			c0-4,0.8-7.3,2.4-9.9c0.6-0.9,1.4-1.8,2.4-2.9c1-1,1.6-1.8,1.8-2.1c2.5-3.8,3.7-7,3.7-9.6c0-4.4-3.1-8.7-9.2-12.9
			c-4.3-3-7.7-4.4-10.1-4.4c-2.5,0-5.5,1.9-9,5.7l-3.5,4.6c-2,2.3-3.9,6.5-5.8,12.6C1-36.9,0-30.2,0-22.8C0-8.9,4,2.1,12.1,10.1
			c8.1,8.1,17.5,12.1,28.3,12.1c7.9,0,14.6-1.6,20.2-4.7c5.6-3.1,9.7-7,12.3-11.7c2.6-4.7,4.8-9.7,6.7-15.1
			c1.9-5.4,3.3-10.4,4.1-15.1c0.9-4.7,2.2-8.6,4.1-11.7c1.9-3.1,4.3-4.7,7.1-4.7c9.3,0,14,5.7,14,17.2c0,2.7-1,5.7-2.9,8.9
			c-1.9,3.2-3.9,5.7-6,7.4C94-1.3,90.9,3.5,90.9,6.9c0,3.4,1.5,6.7,4.4,9.8c5.2,5.3,9.3,7.9,12.4,7.9s6.7-1.6,10.6-4.8l2-1.7
			c3.7-2.6,7.5-7.1,11.4-13.6c2.1-3.2,3.8-7.4,5.3-12.5c1.4-5.2,2.1-10.6,2.1-16.4c0-11.3-3.3-21.9-9.8-31.9
			c-3.3-5.2-8-9.3-14.1-12.5C109.3-72.1,102.2-73.7,94.2-73.7L94.2-73.7z"/>
	</g>
</g>
<g id="XMLID_27_">
	<path id="XMLID_40_" class="st2" d="M-2146.7-931.6c1.2,2.3,1.9,4.3,2.1,6.1c0.2,1.8,0.3,4.4,0.3,7.9v125c0,10.4-2.9,16.4-8.6,18.2
		c-2.9,0.9-6.5,1.4-10.8,1.4c-4.4,0-7.8-0.4-10.4-1.1c-2.6-0.7-4.5-1.7-5.9-2.7c-1.4-1-2.4-2.6-3.2-4.5c-0.8-2.6-1.1-6.5-1.1-11.7
		v-75.5c-3.8,4.7-9.2,12.1-16.4,22.2c-7.2,10.1-11.8,16.5-13.7,19c-2,2.6-3.3,4.3-4.1,5.3c-0.8,1-2.6,2.3-5.5,4.1
		c-2.9,1.7-6.1,2.6-9.5,2.6s-6.5-0.8-9.2-2.4c-2.8-1.6-4.8-3.1-6-4.6l-1.8-2.5c-3-3.8-8.9-11.7-17.8-24
		c-8.9-12.2-13.7-18.8-14.4-19.7v75.9c0,3.5-0.1,6-0.3,7.8c-0.2,1.7-0.9,3.6-2.1,5.7c-2.3,4.1-8.1,6.1-17.6,6.1
		c-9.2,0-14.9-2-17.1-6.1c-1.2-2.1-1.9-4.1-2.1-5.9c-0.2-1.8-0.3-4.5-0.3-8.1v-125c0-3.5,0.1-6,0.3-7.8c0.2-1.7,0.9-3.7,2.1-6
		c2.3-3.9,8.1-5.9,17.6-5.9c4.1,0,7.5,0.5,10.5,1.5c2.9,1,4.8,2,5.7,3l1.4,1.4l51.1,67.1c25.5-33.8,42.6-56.1,51.1-66.9
		c2.6-4.1,8.6-6.1,18.1-6.1C-2154.6-937.7-2148.8-935.7-2146.7-931.6z"/>
	<path id="XMLID_37_" class="st2" d="M-2048.7-940c22.2,0,41.5,8,57.9,24.1c16.4,16.1,24.6,36,24.6,59.8c0,23.8-7.8,44.1-23.4,60.8
		c-15.6,16.7-34.8,25.1-57.7,25.1c-22.8,0-42.2-8.3-58.2-24.8c-16-16.5-24-36.2-24-59c0-12.5,2.3-24.1,6.8-35
		c4.5-10.9,10.5-20,18-27.4c7.5-7.4,16.1-13.1,25.9-17.3C-2069.1-937.9-2059.1-940-2048.7-940z M-2089.7-855
		c0,13.4,4.3,24.2,13,32.6c8.6,8.3,18.3,12.5,28.9,12.5c10.7,0,20.3-4.1,28.8-12.2c8.6-8.1,12.8-19,12.8-32.7
		c0-13.7-4.3-24.6-13-32.9c-8.6-8.3-18.3-12.4-28.9-12.4c-10.7,0-20.3,4.2-28.8,12.5C-2085.4-879.2-2089.7-868.4-2089.7-855z"/>
	<path id="XMLID_34_" class="st2" d="M-1834-861.3c8.9,10.5,13.3,22.3,13.3,35.4c-0.3,15-5.4,27.6-15.4,37.7
		c-10,10.1-22.1,15.2-36.4,15.2h-59.2c-10.5,0-16.7-2.9-18.5-8.6c-0.9-2.6-1.4-6.5-1.4-11.7v-125c0-3.6,0.1-6.2,0.3-7.9
		c0.2-1.7,0.9-3.6,2.1-5.9c2.1-4.1,8-6.1,17.6-6.1h56.8c13.8,0,25.4,4.8,34.7,14.4c9.8,9.8,14.6,21.5,14.6,35.1
		C-1825.5-878.7-1828.3-869.6-1834-861.3z M-1860.6-828.2c0-3.6-0.4-6.5-1.2-8.6c-0.8-2.1-2.2-3.6-4.2-4.5c-3-1.2-7.2-1.8-12.6-1.8
		c-5.4,0-9.5-1-12.2-3.2c-2.7-2.1-4.1-6.4-4.1-13c0-6.5,1.4-10.8,4.2-13c2.8-2.1,7.4-3.2,13.9-3.2c6,0,9.6-1.6,10.8-4.7
		c0.5-1.7,0.7-4.4,0.7-8.1c0-3.8-1.2-6.4-3.7-7.9c-2.5-1.5-6.2-2.3-11.2-2.3h-31.5v85.4h36.9C-1865.3-812.9-1860.6-818-1860.6-828.2
		z"/>
	<path id="XMLID_32_" class="st2" d="M-1766.2-812.7h69.4c3.5,0,6,0.1,7.8,0.3c1.7,0.2,3.7,0.9,6,2.1c4.1,2.1,6.1,8,6.1,17.6
		c0,10.5-2.8,16.7-8.3,18.5c-2.6,0.9-6.5,1.4-11.7,1.4h-89.2c-10.5,0-16.7-2.9-18.5-8.6c-0.9-2.4-1.4-6.2-1.4-11.5v-125.3
		c0-7.7,1.4-12.9,4.3-15.7c2.9-2.8,8.3-4.2,16.2-4.2h88.8c3.5,0,6,0.1,7.8,0.3c1.7,0.2,3.7,0.9,6,2.1c4.1,2.1,6.1,8,6.1,17.6
		c0,10.5-2.8,16.7-8.3,18.5c-2.6,0.9-6.5,1.4-11.7,1.4h-69.2v22.8h44.6c3.5,0,6,0.1,7.8,0.3c1.7,0.2,3.7,0.9,6,2.1
		c4.1,2.1,6.1,8,6.1,17.6c0,10.5-2.9,16.7-8.6,18.5c-2.6,0.9-6.5,1.4-11.7,1.4h-44.2V-812.7z"/>
	<path id="XMLID_30_" class="st2" d="M-1554.5-931.8c1.5-2.4,3.7-4.1,6.5-5c2.9-0.9,6.4-1.4,10.7-1.4c4.3,0,7.7,0.4,10.3,1.1
		c2.6,0.8,4.5,1.7,5.9,2.7c1.4,1.1,2.3,2.6,2.9,4.7c0.9,2.6,1.4,6.5,1.4,11.7v68c0,19.8-6.2,37.8-18.5,54.1
		c-6,7.7-13.7,13.9-23.2,18.6c-9.5,4.7-19.9,7.1-31.4,7.1c-11.5,0-21.9-2.4-31.3-7.2c-9.4-4.8-17-11.1-22.9-18.9
		c-12.2-15.9-18.2-33.9-18.2-54.1v-67.8c0-3.6,0.1-6.3,0.3-8c0.2-1.7,0.9-3.7,2.1-6c1.2-2.3,3.2-3.8,6.1-4.7
		c2.9-0.9,6.7-1.4,11.5-1.4c4.8,0,8.6,0.5,11.5,1.4c2.9,0.9,4.8,2.5,5.9,4.7c1.8,3.5,2.7,8.2,2.7,14.2v67.6c0,9.2,2.3,17.9,6.8,26.1
		c2.3,4.2,5.6,7.6,10.1,10.1c4.5,2.6,9.8,3.8,16,3.8c11,0,19.1-4.1,24.6-12.2c5.4-8.1,8.1-17.5,8.1-28.2v-68.9
		C-1556.7-925.3-1556-929.4-1554.5-931.8z"/>
	<path id="XMLID_28_" class="st2" d="M-1503.1-796c-3.9-4.8-5.9-9.1-5.9-13s3.2-8.9,9.7-15.2c3.8-3.6,7.7-5.4,11.9-5.4
		c4.2,0,10.1,3.8,17.6,11.3c2.1,2.6,5.1,5,9,7.3c3.9,2.3,7.5,3.5,10.8,3.5c14,0,21-5.7,21-17.1c0-3.5-1.9-6.3-5.7-8.7
		c-3.8-2.3-8.6-4-14.3-5.1c-5.7-1-11.9-2.7-18.5-5.1c-6.6-2.3-12.8-5.1-18.5-8.2c-5.7-3.2-10.5-8.1-14.3-15
		c-3.8-6.8-5.7-15.1-5.7-24.7c0-13.2,4.9-24.7,14.8-34.6c9.8-9.8,23.2-14.8,40.2-14.8c9,0,17.2,1.2,24.7,3.5
		c7.4,2.3,12.6,4.7,15.4,7.1l5.6,4.3c4.7,4.4,7,8,7,11c0,3-1.8,7.1-5.4,12.4c-5.1,7.5-10.4,11.3-15.8,11.3c-3.2,0-7.1-1.5-11.7-4.5
		c-0.5-0.3-1.3-1-2.6-2.3c-1.3-1.2-2.4-2.2-3.5-2.9c-3.2-1.9-7.2-2.9-12.1-2.9c-4.9,0-8.9,1.2-12.2,3.5c-3.2,2.3-4.8,5.6-4.8,9.7
		c0,4.1,1.9,7.5,5.7,10c3.8,2.6,8.6,4.3,14.3,5.2c5.7,0.9,11.9,2.3,18.7,4.2c6.8,1.9,13,4.2,18.7,6.9c5.7,2.7,10.5,7.4,14.3,14.1
		c3.8,6.7,5.7,14.9,5.7,24.7c0,9.8-2,18.4-5.9,25.8c-3.9,7.4-9,13.2-15.3,17.2c-12.2,8-25.2,11.9-39,11.9c-7.1,0-13.7-0.9-20.1-2.6
		c-6.3-1.7-11.4-3.9-15.3-6.4c-8-4.8-13.5-9.5-16.7-14L-1503.1-796z"/>
</g>
</svg>
