<?xml version="1.0" encoding="utf-8"?>
<!-- Generator: Adobe Illustrator 19.0.0, SVG Export Plug-In . SVG Version: 6.00 Build 0)  -->
<svg version="1.1" id="Capa_1" xmlns="http://www.w3.org/2000/svg" xmlns:xlink="http://www.w3.org/1999/xlink" x="0px" y="0px"
	 viewBox="0 0 139.6 560" style="enable-background:new 0 0 139.6 560;" xml:space="preserve">
<style type="text/css">
	.st0{opacity:0.31;}
	.st1{fill:#D1D1D1;}
	.st2{fill:#FFFFFF;}
</style>
<g id="XMLID_588_" class="st0">
	<g id="XMLID_621_">
		<path id="XMLID_83_" class="st1" d="M7.4,546.7c1.8-1,3.5-1.6,5-1.8c1.5-0.2,3.6-0.3,6.5-0.3h102.4c8.5,0,13.5,2.3,14.9,7
			c0.7,2.3,1.1,5.3,1.1,8.9c0,3.6-0.3,6.4-0.9,8.5c-0.6,2.1-1.4,3.7-2.2,4.8c-0.9,1.1-2.1,2-3.7,2.6c-2.1,0.6-5.3,0.9-9.6,0.9H59
			c3.8,3.1,9.9,7.6,18.2,13.5c8.3,5.9,13.5,9.7,15.6,11.3c2.1,1.6,3.5,2.7,4.3,3.3c0.8,0.6,1.9,2.1,3.3,4.5c1.4,2.4,2.1,5,2.1,7.7
			c0,2.8-0.6,5.3-1.9,7.6c-1.3,2.3-2.6,3.9-3.8,4.9l-2,1.5c-3.1,2.5-9.6,7.3-19.6,14.6c-10,7.3-15.4,11.2-16.1,11.8h62.2
			c2.8,0,5,0.1,6.4,0.3c1.4,0.2,3,0.8,4.7,1.8c3.3,1.8,5,6.6,5,14.4c0,7.5-1.7,12.2-5,14c-1.7,1-3.3,1.6-4.8,1.8
			c-1.5,0.2-3.7,0.3-6.6,0.3H18.4c-2.8,0-4.9-0.1-6.4-0.3c-1.4-0.2-3-0.8-4.9-1.8c-3.2-1.8-4.8-6.6-4.8-14.4c0-3.3,0.4-6.2,1.2-8.6
			c0.8-2.4,1.6-4,2.5-4.7l1.1-1.1l55-41.9c-27.7-20.9-45.9-34.9-54.8-41.9c-3.3-2.1-5-7-5-14.8C2.4,553.2,4.1,548.5,7.4,546.7z"/>
	</g>
	<g id="XMLID_618_">
		<path id="XMLID_93_" class="st1" d="M0.6,466.5c0-18.2,6.6-34,19.7-47.4c13.2-13.4,29.5-20.1,49-20.1c19.5,0,36.1,6.4,49.8,19.2
			c13.7,12.8,20.6,28.5,20.6,47.2c0,18.7-6.8,34.6-20.3,47.7c-13.5,13.1-29.6,19.6-48.3,19.6c-10.2,0-19.8-1.8-28.7-5.5
			c-8.9-3.7-16.4-8.6-22.4-14.8c-6-6.1-10.8-13.2-14.2-21.2C2.3,483.2,0.6,475,0.6,466.5z M70.1,500.1c10.9,0,19.8-3.5,26.7-10.6
			c6.8-7.1,10.2-15,10.2-23.7c0-8.7-3.3-16.6-10-23.6c-6.6-7-15.6-10.5-26.7-10.5c-11.2,0-20.2,3.5-26.9,10.6
			c-6.8,7.1-10.1,15-10.1,23.7c0,8.7,3.4,16.6,10.2,23.6C50.3,496.6,59.1,500.1,70.1,500.1z"/>
	</g>
	<g id="XMLID_615_">
		<path id="XMLID_89_" class="st1" d="M64.9,290.7c8.6-7.3,18.3-10.9,29-10.9c12.3,0.2,22.6,4.5,30.9,12.6
			c8.3,8.2,12.4,18.1,12.4,29.8v48.5c0,8.6-2.3,13.6-7,15.1c-2.1,0.7-5.3,1.1-9.6,1.1H18.3c-3,0-5.1-0.1-6.5-0.3
			c-1.4-0.2-3-0.8-4.8-1.8c-3.3-1.7-5-6.5-5-14.4v-46.5c0-11.3,3.9-20.8,11.8-28.4c8-8,17.6-12,28.8-12
			C50.7,283.7,58.2,286.1,64.9,290.7z M92,312.5c-3,0-5.3,0.3-7,1c-1.7,0.7-3,1.8-3.7,3.4c-1,2.5-1.5,5.9-1.5,10.3
			c0,4.4-0.9,7.7-2.6,10c-1.7,2.2-5.3,3.3-10.6,3.3c-5.3,0-8.9-1.1-10.6-3.4c-1.7-2.3-2.6-6.1-2.6-11.3c0-4.9-1.3-7.9-3.9-8.9
			c-1.4-0.4-3.6-0.6-6.6-0.6c-3.1,0-5.2,1-6.5,3c-1.2,2-1.8,5.1-1.8,9.1v25.8h69.9v-30.2C104.6,316.4,100.4,312.5,92,312.5z"/>
	</g>
	<g id="XMLID_613_">
		<path id="XMLID_78_" class="st1" d="M104.8,235.2v-56.8c0-2.8,0.1-4.9,0.3-6.4c0.2-1.4,0.8-3,1.8-4.9c1.7-3.3,6.5-5,14.4-5
			c8.6,0,13.6,2.3,15.1,6.8c0.7,2.1,1.1,5.3,1.1,9.6v73c0,8.6-2.3,13.6-7,15.1c-2,0.7-5.1,1.1-9.4,1.1H18.4
			c-6.3,0-10.5-1.2-12.8-3.5c-2.3-2.3-3.4-6.8-3.4-13.3v-72.7c0-2.8,0.1-4.9,0.3-6.4c0.2-1.4,0.8-3,1.8-4.9c1.7-3.3,6.5-5,14.4-5
			c8.6,0,13.6,2.3,15.1,6.8c0.7,2.1,1.1,5.3,1.1,9.6v56.6h18.6v-36.5c0-2.8,0.1-4.9,0.3-6.4c0.2-1.4,0.8-3,1.8-4.9
			c1.7-3.3,6.5-5,14.4-5c8.6,0,13.6,2.3,15.1,7c0.7,2.1,1.1,5.3,1.1,9.6v36.1H104.8z"/>
	</g>
	<g id="XMLID_611_">
		<path id="XMLID_75_" class="st1" d="M7.2,61.9c-2-1.2-3.3-3-4.1-5.3C2.4,54.2,2,51.3,2,47.8c0-3.5,0.3-6.3,0.9-8.4
			c0.6-2.1,1.4-3.7,2.2-4.8C6,33.5,7.3,32.7,9,32.2c2.1-0.7,5.3-1.1,9.6-1.1h55.7c16.2,0,31,5,44.3,15.1c6.3,4.9,11.3,11.3,15.2,19
			s5.8,16.3,5.8,25.7c0,9.4-2,18-5.9,25.6c-3.9,7.7-9.1,13.9-15.5,18.7c-13,10-27.8,14.9-44.3,14.9H18.4c-3,0-5.1-0.1-6.5-0.3
			c-1.4-0.2-3-0.8-4.9-1.8c-1.8-1-3.1-2.6-3.9-5c-0.7-2.3-1.1-5.5-1.1-9.4c0-3.9,0.4-7.1,1.1-9.4c0.7-2.3,2-3.9,3.9-4.8
			c2.8-1.5,6.7-2.2,11.6-2.2H74c7.5,0,14.6-1.8,21.4-5.5c3.4-1.8,6.2-4.6,8.3-8.3c2.1-3.7,3.1-8.1,3.1-13.1c0-9-3.3-15.7-10-20.1
			c-6.6-4.4-14.3-6.6-23.1-6.6H17.3C12.5,63.7,9.2,63.1,7.2,61.9z"/>
	</g>
	<g id="XMLID_589_">
		<path id="XMLID_72_" class="st1" d="M118.4,19.8c-3.9,3.2-7.5,4.8-10.6,4.8c-3.1,0-7.3-2.6-12.4-7.9c-3-3.1-4.4-6.3-4.4-9.8
			c0-3.4,3.1-8.2,9.2-14.4c2.1-1.7,4.1-4.2,6-7.4C108-18,109-21,109-23.7c0-11.4-4.7-17.2-14-17.2c-2.8,0-5.2,1.6-7.1,4.7
			c-1.9,3.1-3.3,7-4.1,11.7c-0.9,4.7-2.2,9.7-4.1,15.1c-1.9,5.4-4.1,10.5-6.7,15.1c-2.6,4.7-6.7,8.6-12.3,11.7
			c-5.6,3.1-12.3,4.7-20.2,4.7c-10.8,0-20.3-4-28.3-12.1C4,2.1,0-8.9,0-22.8C0-30.2,1-36.9,2.9-43c1.9-6.1,3.8-10.3,5.8-12.6
			l3.5-4.6c3.6-3.8,6.6-5.7,9-5.7c2.5,0,5.8,1.5,10.1,4.4c6.1,4.2,9.2,8.5,9.2,12.9c0,2.6-1.2,5.8-3.7,9.6c-0.2,0.4-0.9,1.1-1.8,2.1
			c-1,1-1.8,2-2.4,2.9c-1.6,2.6-2.4,5.9-2.4,9.9c0,4,1,7.3,2.9,10c1.9,2.6,4.6,4,7.9,4c3.4,0,6.1-1.6,8.2-4.7
			c2.1-3.1,3.5-7,4.2-11.7c0.7-4.7,1.9-9.8,3.4-15.3c1.5-5.5,3.4-10.6,5.6-15.3c2.2-4.7,6.1-8.6,11.5-11.7
			c5.5-3.1,12.2-4.7,20.2-4.7c8,0,15,1.6,21.1,4.8c6.1,3.2,10.8,7.4,14.1,12.5c6.5,10,9.8,20.6,9.8,31.9c0,5.8-0.7,11.3-2.1,16.4
			c-1.4,5.2-3.2,9.3-5.3,12.5c-3.9,6.5-7.7,11.1-11.4,13.6L118.4,19.8z"/>
	</g>
</g>
<g id="XMLID_27_">
	<path id="XMLID_40_" class="st2" d="M-2146.7-931.6c1.2,2.3,1.9,4.3,2.1,6.1c0.2,1.8,0.3,4.4,0.3,7.9v125c0,10.4-2.9,16.4-8.6,18.2
		c-2.9,0.9-6.5,1.4-10.8,1.4c-4.4,0-7.8-0.4-10.4-1.1c-2.6-0.7-4.5-1.7-5.9-2.7c-1.4-1-2.4-2.6-3.2-4.5c-0.8-2.6-1.1-6.5-1.1-11.7
		v-75.5c-3.8,4.7-9.2,12.1-16.4,22.2c-7.2,10.1-11.8,16.5-13.7,19c-2,2.6-3.3,4.3-4.1,5.3c-0.8,1-2.6,2.3-5.5,4.1
		c-2.9,1.7-6.1,2.6-9.5,2.6s-6.5-0.8-9.2-2.4c-2.8-1.6-4.8-3.1-6-4.6l-1.8-2.5c-3-3.8-8.9-11.7-17.8-24
		c-8.9-12.2-13.7-18.8-14.4-19.7v75.9c0,3.5-0.1,6-0.3,7.8c-0.2,1.7-0.9,3.6-2.1,5.7c-2.3,4.1-8.1,6.1-17.6,6.1
		c-9.2,0-14.9-2-17.1-6.1c-1.2-2.1-1.9-4.1-2.1-5.9c-0.2-1.8-0.3-4.5-0.3-8.1v-125c0-3.5,0.1-6,0.3-7.8c0.2-1.7,0.9-3.7,2.1-6
		c2.3-3.9,8.1-5.9,17.6-5.9c4.1,0,7.5,0.5,10.5,1.5c2.9,1,4.8,2,5.7,3l1.4,1.4l51.1,67.1c25.5-33.8,42.6-56.1,51.1-66.9
		c2.6-4.1,8.6-6.1,18.1-6.1C-2154.6-937.7-2148.8-935.7-2146.7-931.6z"/>
	<path id="XMLID_37_" class="st2" d="M-2048.7-940c22.2,0,41.5,8,57.9,24.1c16.4,16.1,24.6,36,24.6,59.8c0,23.8-7.8,44.1-23.4,60.8
		c-15.6,16.7-34.8,25.1-57.7,25.1c-22.8,0-42.2-8.3-58.2-24.8c-16-16.5-24-36.2-24-59c0-12.5,2.3-24.1,6.8-35
		c4.5-10.9,10.5-20,18-27.4c7.5-7.4,16.1-13.1,25.9-17.3C-2069.1-937.9-2059.1-940-2048.7-940z M-2089.7-855
		c0,13.4,4.3,24.2,13,32.6c8.6,8.3,18.3,12.5,28.9,12.5c10.7,0,20.3-4.1,28.8-12.2c8.6-8.1,12.8-19,12.8-32.7
		c0-13.7-4.3-24.6-13-32.9c-8.6-8.3-18.3-12.4-28.9-12.4c-10.7,0-20.3,4.2-28.8,12.5C-2085.4-879.2-2089.7-868.4-2089.7-855z"/>
	<path id="XMLID_34_" class="st2" d="M-1834-861.3c8.9,10.5,13.3,22.3,13.3,35.4c-0.3,15-5.4,27.6-15.4,37.7
		c-10,10.1-22.1,15.2-36.4,15.2h-59.2c-10.5,0-16.7-2.9-18.5-8.6c-0.9-2.6-1.4-6.5-1.4-11.7v-125c0-3.6,0.1-6.2,0.3-7.9
		c0.2-1.7,0.9-3.6,2.1-5.9c2.1-4.1,8-6.1,17.6-6.1h56.8c13.8,0,25.4,4.8,34.7,14.4c9.8,9.8,14.6,21.5,14.6,35.1
		C-1825.5-878.7-1828.3-869.6-1834-861.3z M-1860.6-828.2c0-3.6-0.4-6.5-1.2-8.6c-0.8-2.1-2.2-3.6-4.2-4.5c-3-1.2-7.2-1.8-12.6-1.8
		c-5.4,0-9.5-1-12.2-3.2c-2.7-2.1-4.1-6.4-4.1-13c0-6.5,1.4-10.8,4.2-13c2.8-2.1,7.4-3.2,13.9-3.2c6,0,9.6-1.6,10.8-4.7
		c0.5-1.7,0.7-4.4,0.7-8.1c0-3.8-1.2-6.4-3.7-7.9c-2.5-1.5-6.2-2.3-11.2-2.3h-31.5v85.4h36.9C-1865.3-812.9-1860.6-818-1860.6-828.2
		z"/>
	<path id="XMLID_32_" class="st2" d="M-1766.2-812.7h69.4c3.5,0,6,0.1,7.8,0.3c1.7,0.2,3.7,0.9,6,2.1c4.1,2.1,6.1,8,6.1,17.6
		c0,10.5-2.8,16.7-8.3,18.5c-2.6,0.9-6.5,1.4-11.7,1.4h-89.2c-10.5,0-16.7-2.9-18.5-8.6c-0.9-2.4-1.4-6.2-1.4-11.5v-125.3
		c0-7.7,1.4-12.9,4.3-15.7c2.9-2.8,8.3-4.2,16.2-4.2h88.8c3.5,0,6,0.1,7.8,0.3c1.7,0.2,3.7,0.9,6,2.1c4.1,2.1,6.1,8,6.1,17.6
		c0,10.5-2.8,16.7-8.3,18.5c-2.6,0.9-6.5,1.4-11.7,1.4h-69.2v22.8h44.6c3.5,0,6,0.1,7.8,0.3c1.7,0.2,3.7,0.9,6,2.1
		c4.1,2.1,6.1,8,6.1,17.6c0,10.5-2.9,16.7-8.6,18.5c-2.6,0.9-6.5,1.4-11.7,1.4h-44.2V-812.7z"/>
	<path id="XMLID_30_" class="st2" d="M-1554.5-931.8c1.5-2.4,3.7-4.1,6.5-5c2.9-0.9,6.4-1.4,10.7-1.4c4.3,0,7.7,0.4,10.3,1.1
		c2.6,0.8,4.5,1.7,5.9,2.7c1.4,1.1,2.3,2.6,2.9,4.7c0.9,2.6,1.4,6.5,1.4,11.7v68c0,19.8-6.2,37.8-18.5,54.1
		c-6,7.7-13.7,13.9-23.2,18.6c-9.5,4.7-19.9,7.1-31.4,7.1c-11.5,0-21.9-2.4-31.3-7.2c-9.4-4.8-17-11.1-22.9-18.9
		c-12.2-15.9-18.2-33.9-18.2-54.1v-67.8c0-3.6,0.1-6.3,0.3-8c0.2-1.7,0.9-3.7,2.1-6c1.2-2.3,3.2-3.8,6.1-4.7
		c2.9-0.9,6.7-1.4,11.5-1.4c4.8,0,8.6,0.5,11.5,1.4c2.9,0.9,4.8,2.5,5.9,4.7c1.8,3.5,2.7,8.2,2.7,14.2v67.6c0,9.2,2.3,17.9,6.8,26.1
		c2.3,4.2,5.6,7.6,10.1,10.1c4.5,2.6,9.8,3.8,16,3.8c11,0,19.1-4.1,24.6-12.2c5.4-8.1,8.1-17.5,8.1-28.2v-68.9
		C-1556.7-925.3-1556-929.4-1554.5-931.8z"/>
	<path id="XMLID_28_" class="st2" d="M-1503.1-796c-3.9-4.8-5.9-9.1-5.9-13s3.2-8.9,9.7-15.2c3.8-3.6,7.7-5.4,11.9-5.4
		c4.2,0,10.1,3.8,17.6,11.3c2.1,2.6,5.1,5,9,7.3c3.9,2.3,7.5,3.5,10.8,3.5c14,0,21-5.7,21-17.1c0-3.5-1.9-6.3-5.7-8.7
		c-3.8-2.3-8.6-4-14.3-5.1c-5.7-1-11.9-2.7-18.5-5.1c-6.6-2.3-12.8-5.1-18.5-8.2c-5.7-3.2-10.5-8.1-14.3-15
		c-3.8-6.8-5.7-15.1-5.7-24.7c0-13.2,4.9-24.7,14.8-34.6c9.8-9.8,23.2-14.8,40.2-14.8c9,0,17.2,1.2,24.7,3.5
		c7.4,2.3,12.6,4.7,15.4,7.1l5.6,4.3c4.7,4.4,7,8,7,11c0,3-1.8,7.1-5.4,12.4c-5.1,7.5-10.4,11.3-15.8,11.3c-3.2,0-7.1-1.5-11.7-4.5
		c-0.5-0.3-1.3-1-2.6-2.3c-1.3-1.2-2.4-2.2-3.5-2.9c-3.2-1.9-7.2-2.9-12.1-2.9c-4.9,0-8.9,1.2-12.2,3.5c-3.2,2.3-4.8,5.6-4.8,9.7
		c0,4.1,1.9,7.5,5.7,10c3.8,2.6,8.6,4.3,14.3,5.2c5.7,0.9,11.9,2.3,18.7,4.2c6.8,1.9,13,4.2,18.7,6.9c5.7,2.7,10.5,7.4,14.3,14.1
		c3.8,6.7,5.7,14.9,5.7,24.7c0,9.8-2,18.4-5.9,25.8c-3.9,7.4-9,13.2-15.3,17.2c-12.2,8-25.2,11.9-39,11.9c-7.1,0-13.7-0.9-20.1-2.6
		c-6.3-1.7-11.4-3.9-15.3-6.4c-8-4.8-13.5-9.5-16.7-14L-1503.1-796z"/>
</g>
</svg>
