<?xml version="1.0" standalone="no"?>
<!DOCTYPE svg PUBLIC "-//W3C//DTD SVG 20010904//EN"
 "http://www.w3.org/TR/2001/REC-SVG-20010904/DTD/svg10.dtd">
<svg version="1.0" xmlns="http://www.w3.org/2000/svg"
 width="280.000000pt" height="280.000000pt" viewBox="0 0 280.000000 280.000000"
 preserveAspectRatio="xMidYMid meet">
<metadata>
Created by potrace 1.11, written by Peter Selinger 2001-2013
</metadata>
<g transform="translate(0.000000,280.000000) scale(0.100000,-0.100000)"
fill="#000000" stroke="none">
<path d="M358 2041 c-76 -25 -118 -52 -173 -113 l-46 -51 40 -18 c22 -9 475
-264 1008 -565 532 -301 988 -553 1012 -561 88 -26 208 -10 294 40 43 25 137
118 137 135 0 6 -10 12 -22 14 -13 2 -459 251 -993 553 -571 323 -994 556
-1028 567 -73 23 -155 22 -229 -1z"/>
<path d="M2313 2036 c4 -10 7 -215 7 -456 l0 -438 143 -81 c79 -45 153 -81
165 -81 12 0 29 11 37 24 14 20 15 72 13 393 l-3 368 -33 67 c-56 115 -164
194 -294 214 -37 6 -41 5 -35 -10z"/>
<path d="M1832 1840 c-200 -108 -364 -201 -365 -206 -1 -5 79 -55 178 -110
l179 -102 56 31 c30 18 127 72 215 122 l160 91 3 173 c3 183 -1 202 -42 200
-11 0 -184 -90 -384 -199z"/>
<path d="M114 1796 c-18 -14 -19 -30 -19 -408 l0 -393 29 -58 c55 -108 175
-196 290 -213 44 -6 48 -5 43 10 -4 10 -7 219 -7 464 l0 447 -43 24 c-140 81
-253 141 -262 141 -6 0 -20 -6 -31 -14z"/>
<path d="M730 1227 l-215 -123 -3 -173 c-2 -119 1 -178 9 -187 15 -18 51 -18
96 1 35 15 690 381 706 395 9 8 -344 210 -365 210 -7 -1 -110 -56 -228 -123z"/>
</g>
</svg>
